<?xml version="1.0" encoding="utf-8"?>
<!-- Generator: Adobe Illustrator 20.1.0, SVG Export Plug-In . SVG Version: 6.00 Build 0)  -->
<svg version="1.1" id="Capa_1" xmlns="http://www.w3.org/2000/svg" xmlns:xlink="http://www.w3.org/1999/xlink" x="0px" y="0px"
	 viewBox="0 0 100 125" style="enable-background:new 0 0 100 125;" xml:space="preserve">
<style type="text/css">
	.st0{fill:#FFFFFF;}
</style>
<path class="st0" d="M81.3,84.4L65.9,69.1c3.6-4.2,5.7-9.7,5.7-15.6c0-13.4-10.8-24.2-24.2-24.2S23.2,40.1,23.2,53.4
	s10.8,24.2,24.2,24.2c6,0,11.4-2.2,15.6-5.7l15.4,15.4c0.5,0.5,1.4,0.5,1.9,0l1-1C81.8,85.8,81.8,84.9,81.3,84.4z M27.3,53.4
	c0-11.1,9-20.2,20.2-20.2s20.2,9,20.2,20.2s-9,20.2-20.2,20.2S27.3,64.6,27.3,53.4z"/>
</svg>
